<svg xmlns="http://www.w3.org/2000/svg">
    <symbol id="u-mouse-ios" viewBox="0 0 30 30">
        <path d="M 3.984375 6.9863281 A 1.0001 1.0001 0 0 0 3 8 C 3 12.236284 5.1057773 12.961703 5.5019531 13.619141 C 6.0563451 14.540603 5.9702039 15.022218 5.7421875 15.794922 C 5.5141711 16.567626 5 17.549244 5 18.861328 C 5 19.556357 5.1894903 20.568418 5.9648438 21.460938 C 6.740197 22.353456 8.0840564 23 10 23 L 20 23 C 24 23 27 22.037 27 21 C 27 20.104269 25.366006 17.950625 23.753906 16.583984 A 3 4 0 0 0 24 15 A 3 4 0 0 0 21 11 A 3 4 0 0 0 18 15 C 18 15.552 17.552 16 17 16 C 16.448 16 16 15.552 16 15 C 16 14.434 16.070359 13.888141 16.193359 13.369141 C 11.830014 14.534213 9.6018143 18.29391 9.1074219 20.933594 C 8.2271008 20.800807 7.7607775 20.477849 7.4746094 20.148438 C 7.1034627 19.721205 7 19.165299 7 18.861328 C 7 18.116413 7.3609228 17.375374 7.6601562 16.361328 C 7.9593898 15.347282 8.0534049 13.978428 7.2167969 12.587891 A 1.0001 1.0001 0 0 0 7.2148438 12.585938 C 6.1310164 10.787422 5 11.691716 5 8 A 1.0001 1.0001 0 0 0 3.984375 6.9863281 z M 23.5 19 C 23.776 19 24 19.224 24 19.5 C 24 19.776 23.776 20 23.5 20 C 23.224 20 23 19.776 23 19.5 C 23 19.224 23.224 19 23.5 19 z"></path>
    </symbol>

    <symbol id="u-mouse" viewBox="0 0 24 24">
        <path d="M 17.5 2 C 15.625 2 13.748766 2.9525313 13.134766 5.0195312 C 13.039766 5.3645312 12.972656 5.7207031 12.972656 6.0957031 C 12.972656 6.3067031 12.989531 6.5137969 13.019531 6.7167969 C 13.102531 7.2627969 12.726688 7.7724688 12.179688 7.8554688 C 12.128687 7.8634688 12.078297 7.8671875 12.029297 7.8671875 C 11.543297 7.8671875 11.116969 7.5125781 11.042969 7.0175781 C 10.996969 6.7155781 10.974609 6.4056562 10.974609 6.0976562 C 10.974609 5.7246562 11.012172 5.3608594 11.076172 5.0058594 C 11.049172 5.0038594 11.027 5 11 5 C 7.2858296 5 3.336471 7.4356812 3.0292969 14.160156 C 2.5107459 14.31381 1.993634 14.573843 1.5 14.96875 C 0.69724125 15.610957 0 16.666667 0 18 C 0 19.5 1.1489888 20.85435 2.9335938 21.449219 C 4.7181987 22.044087 7.174104 21.996653 10.316406 20.949219 C 12.778062 20.128667 14.609186 19.931407 15.960938 20.214844 C 17.312689 20.498281 18.271328 21.209726 19.167969 22.554688 A 1.0001 1.0001 0 1 0 20.832031 21.445312 C 19.728672 19.790274 18.242092 18.650126 16.371094 18.257812 C 14.500095 17.865499 12.330938 18.168332 9.6835938 19.050781 C 6.8258962 20.003347 4.7818013 19.955913 3.5664062 19.550781 C 2.3510112 19.14565 2 18.5 2 18 C 2 17.333333 2.3027588 16.889043 2.75 16.53125 C 3.1972412 16.173457 3.8333333 16 4 16 L 22.384766 16 C 22.872766 16 23.314406 15.749078 23.566406 15.330078 C 23.815406 14.914078 23.829516 14.410328 23.603516 13.986328 C 22.760516 12.390328 21.703969 10.735547 20.792969 9.5605469 C 21.561969 8.7385469 22 7.653 22 6.5 C 22 4.018 19.981 2 17.5 2 z M 16 10 C 16.552 10 17 10.448 17 11 C 17 11.552 16.552 12 16 12 C 15.448 12 15 11.552 15 11 C 15 10.448 15.448 10 16 10 z"></path>
    </symbol>

    <symbol id="u-tissue" viewBox="0 0 32 32">
        <path d="M 16 4 C 9.3844239 4 4 9.3844287 4 16 C 4 22.615571 9.3844239 28 16 28 C 22.615576 28 28 22.615571 28 16 C 28 9.3844287 22.615576 4 16 4 z M 16 6 C 21.534697 6 26 10.465307 26 16 C 26 21.534693 21.534697 26 16 26 C 10.465303 26 6 21.534693 6 16 C 6 10.465307 10.465303 6 16 6 z M 14 9 C 13.083334 9 12.268559 9.3797556 11.751953 9.9609375 C 11.235347 10.542119 11 11.277778 11 12 C 11 12.722222 11.235347 13.457881 11.751953 14.039062 C 12.268559 14.620245 13.083334 15 14 15 C 14.916666 15 15.731441 14.620244 16.248047 14.039062 C 16.764653 13.457882 17 12.722222 17 12 C 17 11.971301 16.992934 11.942793 16.992188 11.914062 A 1.5 1.5 0 0 0 16.5 9 A 1.5 1.5 0 0 0 15.496094 9.3886719 C 15.059996 9.1508473 14.553714 9 14 9 z M 14 11 C 14.416666 11 14.601893 11.120244 14.751953 11.289062 C 14.902014 11.457882 15 11.722222 15 12 C 15 12.277778 14.90201 12.542119 14.751953 12.710938 C 14.601893 12.879755 14.416666 13 14 13 C 13.583334 13 13.398107 12.879756 13.248047 12.710938 C 13.097986 12.542118 13 12.277778 13 12 C 13 11.722222 13.097986 11.457881 13.248047 11.289062 C 13.398107 11.120245 13.583334 11 14 11 z M 21 11 A 1 1 0 0 0 21 13 A 1 1 0 0 0 21 11 z M 9 15 A 1 1 0 0 0 9 17 A 1 1 0 0 0 9 15 z M 19.5 15 C 17.610547 15 16.068544 16.53216 16.017578 18.410156 C 14.901712 18.849058 14 19.736752 14 21 C 14 22.64497 15.35503 24 17 24 C 18.263248 24 19.150942 23.098288 19.589844 21.982422 C 21.46784 21.931456 23 20.389453 23 18.5 C 23 16.578812 21.421188 15 19.5 15 z M 19.5 17 C 20.340812 17 21 17.659188 21 18.5 C 21 19.340812 20.340812 20 19.5 20 C 19.396364 20 19.293919 19.98911 19.193359 19.96875 L 18.226562 19.773438 L 18.03125 18.806641 C 18.010891 18.706081 18 18.603636 18 18.5 C 18 17.659188 18.659188 17 19.5 17 z M 10.5 18 A 1.5 1.5 0 0 0 10.5 21 A 1.5 1.5 0 0 0 10.5 18 z M 17 20 C 16.832815 20 16.837704 20.005859 17.050781 20.005859 L 17.994141 20.005859 L 17.994141 20.949219 C 17.994142 21.162256 18 21.167185 18 21 C 18 21.56503 17.56503 22 17 22 C 16.43497 22 16 21.56503 16 21 C 16 20.43497 16.43497 20 17 20 z"></path>
    </symbol>
</svg>