<svg xmlns="http://www.w3.org/2000/svg">
  <symbol id="u-tissue" viewBox="0 0 32 32">
    <path d="M 16 4 C 9.3844239 4 4 9.3844287 4 16 C 4 22.615571 9.3844239 28 16 28 C 22.615576 28 28 22.615571 28 16 C 28 9.3844287 22.615576 4 16 4 z M 16 6 C 21.534697 6 26 10.465307 26 16 C 26 21.534693 21.534697 26 16 26 C 10.465303 26 6 21.534693 6 16 C 6 10.465307 10.465303 6 16 6 z M 14 9 C 13.083334 9 12.268559 9.3797556 11.751953 9.9609375 C 11.235347 10.542119 11 11.277778 11 12 C 11 12.722222 11.235347 13.457881 11.751953 14.039062 C 12.268559 14.620245 13.083334 15 14 15 C 14.916666 15 15.731441 14.620244 16.248047 14.039062 C 16.764653 13.457882 17 12.722222 17 12 C 17 11.971301 16.992934 11.942793 16.992188 11.914062 A 1.5 1.5 0 0 0 16.5 9 A 1.5 1.5 0 0 0 15.496094 9.3886719 C 15.059996 9.1508473 14.553714 9 14 9 z M 14 11 C 14.416666 11 14.601893 11.120244 14.751953 11.289062 C 14.902014 11.457882 15 11.722222 15 12 C 15 12.277778 14.90201 12.542119 14.751953 12.710938 C 14.601893 12.879755 14.416666 13 14 13 C 13.583334 13 13.398107 12.879756 13.248047 12.710938 C 13.097986 12.542118 13 12.277778 13 12 C 13 11.722222 13.097986 11.457881 13.248047 11.289062 C 13.398107 11.120245 13.583334 11 14 11 z M 21 11 A 1 1 0 0 0 21 13 A 1 1 0 0 0 21 11 z M 9 15 A 1 1 0 0 0 9 17 A 1 1 0 0 0 9 15 z M 19.5 15 C 17.610547 15 16.068544 16.53216 16.017578 18.410156 C 14.901712 18.849058 14 19.736752 14 21 C 14 22.64497 15.35503 24 17 24 C 18.263248 24 19.150942 23.098288 19.589844 21.982422 C 21.46784 21.931456 23 20.389453 23 18.5 C 23 16.578812 21.421188 15 19.5 15 z M 19.5 17 C 20.340812 17 21 17.659188 21 18.5 C 21 19.340812 20.340812 20 19.5 20 C 19.396364 20 19.293919 19.98911 19.193359 19.96875 L 18.226562 19.773438 L 18.03125 18.806641 C 18.010891 18.706081 18 18.603636 18 18.5 C 18 17.659188 18.659188 17 19.5 17 z M 10.5 18 A 1.5 1.5 0 0 0 10.5 21 A 1.5 1.5 0 0 0 10.5 18 z M 17 20 C 16.832815 20 16.837704 20.005859 17.050781 20.005859 L 17.994141 20.005859 L 17.994141 20.949219 C 17.994142 21.162256 18 21.167185 18 21 C 18 21.56503 17.56503 22 17 22 C 16.43497 22 16 21.56503 16 21 C 16 20.43497 16.43497 20 17 20 z"></path>
  </symbol>

  <symbol id="u-organoid" viewBox="-30 -30 470 470">
    <path d="M178.667 10.849 C 29.182 26.160,-42.719 206.100,54.150 322.464 C 136.791 421.737,297.246 409.372,362.952 298.667 C 443.776 162.492,336.340 -5.302,178.667 10.849 M226.667 33.525 C 325.080 47.265,391.503 153.856,361.075 249.214 C 322.083 371.410,171.428 408.827,81.300 318.700 C -21.607 215.793,42.980 45.146,190.000 31.503 C 197.074 30.846,214.272 31.795,226.667 33.525 M199.242 62.762 C 194.755 64.066,188.610 70.222,186.650 75.378 C 185.646 78.019,184.470 78.667,180.682 78.667 C 178.087 78.667,174.922 79.208,173.649 79.870 C 170.085 81.722,154.848 83.607,152.988 82.425 C 141.117 74.886,117.333 87.669,117.333 101.589 C 117.333 106.894,103.039 118.272,94.442 119.810 C 78.561 122.651,69.103 141.111,76.594 154.645 C 78.664 158.384,77.229 162.667,73.906 162.667 C 66.905 162.667,56.463 174.276,55.916 182.667 C 55.052 195.928,58.179 203.339,66.820 208.516 C 71.240 211.164,72.826 220.032,69.924 225.872 C 63.783 238.230,70.109 255.212,83.000 260.971 C 85.017 261.872,86.667 263.449,86.667 264.475 C 86.667 265.501,87.611 267.124,88.766 268.082 C 90.501 269.523,90.715 271.688,89.998 280.579 C 88.285 301.817,105.232 316.316,123.061 308.866 C 128.702 306.509,137.333 311.238,137.333 316.686 C 137.333 318.509,137.933 320.000,138.667 320.000 C 139.400 320.000,140.010 321.050,140.023 322.333 C 140.067 326.792,153.815 336.000,160.429 336.000 C 164.343 336.000,173.333 333.066,173.333 331.789 C 173.333 331.172,174.160 330.667,175.170 330.667 C 176.180 330.667,177.754 329.767,178.667 328.667 C 180.411 326.564,190.667 325.813,190.667 327.788 C 190.667 330.647,201.747 339.957,206.128 340.779 C 220.511 343.477,231.850 337.888,236.647 325.735 C 240.074 317.052,243.023 315.704,250.000 319.632 C 261.931 326.349,285.333 318.583,285.333 307.908 C 285.333 306.561,286.029 303.931,286.880 302.064 C 288.077 299.436,288.032 297.471,286.681 293.377 C 284.289 286.130,286.170 284.000,294.962 284.000 C 314.501 284.000,325.730 265.104,316.742 247.350 C 311.969 237.922,313.138 234.111,322.055 230.032 C 339.513 222.047,343.595 207.652,333.000 191.435 C 329.223 185.655,326.444 182.740,324.667 182.696 C 317.811 182.527,311.058 176.000,317.738 176.000 C 318.695 176.000,321.245 174.050,323.405 171.667 C 340.121 153.227,327.780 127.584,303.172 129.625 C 296.199 130.203,295.866 130.074,292.392 125.444 C 290.421 122.816,288.256 120.288,287.581 119.825 C 286.854 119.326,287.024 116.958,287.997 114.009 C 289.898 108.249,289.130 94.377,286.868 93.623 C 286.024 93.341,285.333 92.265,285.333 91.231 C 285.333 82.082,259.260 77.892,249.229 85.428 C 245.189 88.464,244.285 88.663,241.333 87.168 C 239.500 86.239,236.950 85.166,235.667 84.782 C 234.373 84.395,233.333 82.791,233.333 81.182 C 233.333 68.206,214.860 58.225,199.242 62.762 M214.554 74.333 C 226.535 81.147,223.801 96.782,210.363 98.296 C 197.060 99.796,191.055 86.367,200.711 76.711 C 206.009 71.413,208.627 70.963,214.554 74.333 M149.407 94.759 C 158.403 99.344,156.456 114.243,146.470 117.235 C 135.361 120.563,126.958 111.903,130.598 100.876 C 133.052 93.439,141.455 90.706,149.407 94.759 M270.069 94.122 C 277.196 97.504,279.425 108.765,274.035 114.156 C 263.911 124.280,246.068 112.747,252.726 100.383 C 256.683 93.035,262.984 90.760,270.069 94.122 M194.667 112.000 C 194.667 112.733,195.474 113.333,196.460 113.333 C 207.073 113.333,205.000 134.025,194.114 136.757 C 180.554 140.161,171.911 124.489,182.168 115.095 C 186.843 110.812,194.667 108.875,194.667 112.000 M105.472 132.241 C 107.307 133.108,109.938 136.138,111.319 138.976 C 118.196 153.115,95.618 163.650,88.218 149.754 C 82.261 138.570,93.884 126.773,105.472 132.241 M161.881 145.436 C 173.079 158.743,154.586 174.899,142.881 162.036 C 138.769 157.516,136.913 149.333,140.000 149.333 C 140.733 149.333,141.333 148.507,141.333 147.496 C 141.333 140.725,156.627 139.191,161.881 145.436 M271.903 146.304 C 276.770 152.209,276.986 154.842,273.064 160.461 C 264.744 172.380,248.090 166.624,249.695 152.384 C 251.024 140.590,264.216 136.978,271.903 146.304 M315.168 145.161 C 326.725 157.224,309.273 174.773,297.212 163.217 C 294.193 160.324,293.333 158.317,293.333 154.157 C 293.333 142.355,307.061 136.699,315.168 145.161 M220.797 162.747 C 231.141 169.140,227.006 184.647,214.511 186.323 C 209.835 186.950,208.849 186.526,204.658 182.082 C 193.670 170.431,207.134 154.303,220.797 162.747 M87.601 176.671 C 99.620 185.089,88.156 206.041,75.244 199.257 C 62.488 192.554,65.947 174.667,80.000 174.667 C 82.607 174.667,86.028 175.569,87.601 176.671 M136.913 185.990 C 152.866 193.948,146.200 215.877,129.361 210.833 C 119.101 207.759,118.230 189.087,128.252 187.083 C 130.313 186.671,132.000 185.808,132.000 185.167 C 132.000 183.623,132.254 183.666,136.913 185.990 M264.000 189.041 C 264.000 189.614,265.650 190.722,267.667 191.504 C 279.874 196.238,275.292 215.983,262.000 215.922 C 247.902 215.858,245.169 197.646,258.073 189.745 C 261.095 187.894,264.000 187.549,264.000 189.041 M323.380 197.594 C 329.390 203.293,327.865 211.351,319.454 218.333 C 317.030 220.345,311.167 220.517,308.944 218.642 C 308.058 217.895,305.907 216.108,304.163 214.671 C 297.935 209.539,300.501 198.064,308.667 194.532 C 312.798 192.744,319.804 194.203,323.380 197.594 M199.941 209.501 C 206.310 217.147,199.693 232.000,189.918 232.000 C 180.236 232.000,173.025 216.309,179.658 209.676 C 185.126 204.208,195.458 204.119,199.941 209.501 M96.320 224.832 C 103.553 228.573,109.694 242.667,104.090 242.667 C 103.406 242.667,102.466 243.867,102.000 245.333 C 101.534 246.800,100.294 248.000,99.243 248.000 C 98.193 248.000,97.333 248.600,97.333 249.333 C 97.333 252.380,88.023 250.650,83.718 246.803 C 76.675 240.510,79.395 225.333,87.566 225.333 C 88.538 225.333,89.333 224.733,89.333 224.000 C 89.333 222.089,91.519 222.350,96.320 224.832 M148.667 235.711 C 156.931 242.803,157.725 248.648,151.342 255.415 C 141.901 265.426,127.235 257.312,129.895 243.551 C 131.462 235.449,142.830 230.701,148.667 235.711 M251.988 241.531 C 260.195 250.118,255.226 262.948,243.596 263.203 C 236.630 263.355,232.553 260.443,230.864 254.108 C 227.363 240.976,242.720 231.832,251.988 241.531 M298.667 246.350 C 298.667 246.910,300.014 247.960,301.661 248.684 C 308.794 251.820,309.656 264.121,303.104 269.276 C 292.390 277.703,277.000 265.934,283.340 254.161 C 286.622 248.067,298.667 241.929,298.667 246.350 M198.769 257.231 C 210.553 269.014,192.920 286.573,180.688 275.236 C 172.381 267.538,178.216 253.333,189.685 253.333 C 193.640 253.333,195.797 254.259,198.769 257.231 M122.370 275.925 C 131.297 284.079,126.089 298.000,114.110 298.000 C 100.850 298.000,96.528 283.347,107.165 274.458 C 111.519 270.819,117.401 271.387,122.370 275.925 M267.665 286.227 C 276.548 291.326,277.978 299.046,271.342 306.082 C 263.807 314.072,251.839 310.939,249.874 300.461 C 247.738 289.076,258.134 280.758,267.665 286.227 M167.206 298.851 C 178.223 303.871,173.946 324.000,161.862 324.000 C 155.375 324.000,142.687 309.993,147.670 308.332 C 148.585 308.027,149.333 306.981,149.333 306.007 C 149.333 300.325,160.568 295.827,167.206 298.851 M218.651 305.069 C 231.518 311.362,227.399 329.333,213.090 329.333 C 199.342 329.333,195.885 311.199,208.440 304.943 C 213.657 302.344,213.063 302.336,218.651 305.069 "/>
  </symbol>

  <symbol id="u-xenograft" viewBox="2 2 28 28">
    <path d="M 3.984375 6.9863281 A 1.0001 1.0001 0 0 0 3 8 C 3 12.236284 5.1057773 12.961703 5.5019531 13.619141 C 6.0563451 14.540603 5.9702039 15.022218 5.7421875 15.794922 C 5.5141711 16.567626 5 17.549244 5 18.861328 C 5 19.556357 5.1894903 20.568418 5.9648438 21.460938 C 6.740197 22.353456 8.0840564 23 10 23 L 20 23 C 24 23 27 22.037 27 21 C 27 20.104269 25.366006 17.950625 23.753906 16.583984 A 3 4 0 0 0 24 15 A 3 4 0 0 0 21 11 A 3 4 0 0 0 18 15 C 18 15.552 17.552 16 17 16 C 16.448 16 16 15.552 16 15 C 16 14.434 16.070359 13.888141 16.193359 13.369141 C 11.830014 14.534213 9.6018143 18.29391 9.1074219 20.933594 C 8.2271008 20.800807 7.7607775 20.477849 7.4746094 20.148438 C 7.1034627 19.721205 7 19.165299 7 18.861328 C 7 18.116413 7.3609228 17.375374 7.6601562 16.361328 C 7.9593898 15.347282 8.0534049 13.978428 7.2167969 12.587891 A 1.0001 1.0001 0 0 0 7.2148438 12.585938 C 6.1310164 10.787422 5 11.691716 5 8 A 1.0001 1.0001 0 0 0 3.984375 6.9863281 z M 23.5 19 C 23.776 19 24 19.224 24 19.5 C 24 19.776 23.776 20 23.5 20 C 23.224 20 23 19.776 23 19.5 C 23 19.224 23.224 19 23.5 19 z"></path>
  </symbol>

  <symbol id="u-gene" viewBox="-90 0 512 512">
    <g transform="translate(0.000000,512.000000) scale(0.100000,-0.100000)">
      <path d="M1089 4923 l-84 -86 195 -188 195 -188 -85 -83 c-47 -46 -197 -191 -334 -323 l-249 -239 -106 -1 c-102 0 -109 -1 -169 -34 -204 -111 -258 -359 -119 -543 l39 -51 -30 -101 c-17 -56 -36 -126 -43 -156 -6 -30 -13 -60 -15 -67 -1 -6 -32 -25 -68 -42 -126 -61 -198 -177 -199 -321 0 -143 73 -260 199 -321 36 -17 67 -36 69 -42 2 -7 11 -46 20 -87 9 -41 28 -111 42 -155 l26 -81 -42 -54 c-53 -71 -75 -137 -74 -225 1 -138 75 -255 198 -316 74 -36 174 -49 240 -30 l40 11 55 -59 c30 -32 178 -177 328 -321 150 -145 271 -266 270 -270 -2 -4 -86 -87 -188 -185 -102 -99 -185 -182 -185 -186 0 -11 145 -169 155 -169 4 0 94 83 200 185 106 102 195 185 200 185 4 0 94 -83 199 -185 106 -102 196 -185 201 -185 10 0 155 158 155 168 0 4 -83 88 -185 186 -102 99 -186 183 -188 186 -1 4 120 125 270 270 150 144 298 289 328 322 l55 60 47 -12 c212 -54 428 108 443 331 6 94 -19 169 -83 247 l-35 44 26 81 c15 45 36 121 48 169 l21 88 53 24 c106 48 180 142 206 259 36 164 -69 347 -234 407 -15 5 -29 15 -31 22 -2 7 -11 47 -20 88 -9 41 -28 112 -42 157 l-26 81 40 51 c53 67 76 137 76 231 -1 62 -6 86 -32 140 -59 126 -170 200 -307 208 -44 2 -91 -1 -105 -6 -25 -9 -79 40 -620 566 l-85 83 194 188 195 187 -83 87 -84 87 -198 -191 -199 -191 -199 190 -198 191 -84 -86z m773 -910 c155 -149 302 -291 326 -316 l43 -44 -18 -36 -18 -37 -617 0 -616 0 -21 36 c-12 19 -21 39 -21 44 0 12 643 630 652 627 3 -1 134 -124 290 -274z m356 -717 c31 -58 101 -127 159 -156 25 -12 76 -28 112 -33 l67 -11 22 -70 c12 -39 28 -99 36 -133 l14 -61 -48 -31 c-57 -37 -94 -79 -123 -138 l-21 -43 -860 0 -861 0 -19 40 c-27 57 -80 116 -131 145 l-43 26 13 57 c8 31 24 91 37 131 l24 75 68 13 c37 6 87 22 110 33 55 29 140 113 162 161 l17 39 621 0 621 0 23 -44z m238 -958 c22 -49 100 -130 143 -149 34 -15 34 -19 -5 -154 -37 -129 -40 -135 -72 -135 -41 0 -129 -28 -171 -54 -52 -33 -117 -103 -137 -148 l-17 -38 -622 0 -622 0 -18 40 c-22 49 -121 145 -172 167 -21 9 -67 22 -103 28 l-64 11 -24 75 c-13 40 -29 100 -37 131 l-13 57 54 35 c54 36 101 92 126 147 l13 29 861 0 861 0 19 -42z m-246 -948 c11 -27 10 -32 -16 -63 -52 -62 -612 -597 -624 -597 -11 0 -427 396 -587 558 l-62 63 17 34 17 35 621 0 622 0 12 -30z"/>
    </g>
  </symbol>

  <symbol id="u-ssm" viewBox="-90 0 512 512">
    <g transform="translate(0.000000,512.000000) scale(0.100000,-0.100000)">
      <path d="M1101 4974 l-80 -86 157 -152 c86 -84 175 -169 197 -189 l40 -37 -95 -92 c-52 -51 -205 -201 -340 -333 l-245 -240 -96 4 c-92 3 -100 1 -164 -29 -79 -38 -144 -98 -178 -167 -32 -64 -39 -96 -38 -175 1 -85 29 -162 80 -220 l39 -43 -30 -90 c-16 -50 -37 -126 -46 -170 l-17 -80 -58 -27 c-149 -72 -237 -237 -208 -391 23 -125 84 -207 193 -262 l72 -36 22 -97 c12 -53 33 -129 46 -168 l24 -72 -38 -46 c-124 -155 -102 -383 49 -510 79 -66 214 -98 308 -73 l50 13 65 -65 c36 -37 185 -181 332 -320 148 -139 268 -256 268 -260 0 -4 -85 -89 -190 -190 -104 -100 -190 -187 -190 -192 0 -13 152 -170 161 -167 4 2 61 55 126 118 65 63 153 148 195 189 l77 73 196 -183 c109 -101 200 -185 204 -187 3 -1 44 35 89 81 l83 83 -196 189 -197 189 124 120 c68 67 218 214 335 328 l212 207 31 -11 c47 -16 177 -5 233 20 100 44 177 131 206 231 32 111 4 252 -68 332 l-38 43 25 75 c28 89 67 250 77 320 l7 48 -116 13 c-64 7 -118 11 -121 9 -2 -3 -13 -50 -24 -105 -10 -54 -32 -137 -47 -184 l-29 -85 -57 -6 c-66 -7 -156 -48 -207 -95 -20 -17 -49 -57 -66 -88 l-30 -56 -205 0 c-113 0 -394 -3 -625 -7 l-420 -6 -22 46 c-51 105 -164 184 -280 194 l-60 6 -32 101 c-17 55 -34 117 -37 136 -5 33 -3 37 48 71 52 35 92 82 123 147 l16 32 502 1 c276 1 552 2 612 4 61 2 194 4 298 4 l187 1 0 121 0 122 -799 -7 -800 -8 -24 49 c-23 44 -89 113 -148 154 l-24 16 23 88 c13 48 31 108 40 134 l18 46 56 6 c112 12 224 90 278 192 l25 47 175 0 c96 0 378 3 626 7 l450 6 13 -32 c47 -111 194 -211 313 -211 34 0 34 -1 61 -82 15 -46 38 -132 50 -191 l22 -108 45 6 c25 3 78 10 118 17 l73 11 -6 46 c-8 67 -50 235 -78 318 -24 71 -25 72 -5 90 27 24 84 130 94 173 22 102 -8 233 -72 314 -77 98 -217 150 -340 126 l-59 -10 -65 69 c-36 38 -186 185 -335 327 -148 142 -271 260 -273 264 -1 3 86 90 193 194 l195 188 -76 81 c-42 45 -81 84 -86 85 -5 2 -98 -83 -208 -188 l-200 -192 -157 150 c-87 83 -176 169 -198 191 -21 23 -42 41 -46 41 -4 0 -43 -39 -88 -86z m657 -791 c92 -87 241 -230 331 -319 l165 -162 -19 -41 -18 -41 -516 -1 c-284 -1 -565 -2 -626 -3 l-110 -1 -19 36 -20 37 33 37 c32 37 623 613 629 614 2 1 79 -70 170 -156z m472 -2779 l13 -37 -129 -126 c-71 -69 -218 -213 -327 -319 l-197 -193 -325 312 c-179 172 -325 318 -325 325 0 7 5 24 12 38 l11 26 461 2 c254 2 536 4 628 6 l166 2 12 -36z"/>
      <path d="M3358 3132 c-124 -64 -229 -120 -232 -123 -4 -3 16 -54 44 -113 l51 -106 240 121 c131 67 239 126 238 133 -1 19 -94 199 -104 202 -6 2 -112 -50 -237 -114z"/>
      <path d="M3170 2541 c0 -140 -10 -131 130 -126 52 2 209 4 348 4 l252 1 0 120 0 120 -365 0 -365 0 0 -119z"/>
      <path d="M3171 2179 c-51 -102 -60 -129 -41 -129 5 0 113 -51 239 -114 l229 -114 55 110 54 109 -236 116 c-130 64 -239 118 -243 120 -3 2 -29 -42 -57 -98z"/>
    </g>
  </symbol>

  <symbol id="u-cnv" viewBox="-90 0 512 512">
    <g transform="translate(0.000000,512.000000) scale(0.100000,-0.100000)">
      <path d="M 1101 4974 L 1021 4888 L 1178 4736 C 1264 4652 1353 4567 1375 4547 L 1415 4510 L 1320 4418 C 1268 4367 1115 4217 980 4085 L 735 3845 L 639 3849 C 547 3852 539 3850 475 3820 C 396 3782 331 3722 297 3653 C 265 3589 258 3557 259 3478 C 260 3393 288 3316 339 3258 L 378 3215 L 348 3125 C 332 3075 311 2999 302 2955 L 285 2875 L 227 2848 C 78 2776 -10 2611 19 2457 C 42 2332 103 2250 212 2195 L 284 2159 L 306 2062 C 318 2009 339 1933 352 1894 L 376 1822 L 338 1776 C 214 1621 236 1393 387 1266 C 466 1200 601 1168 695 1193 L 745 1206 L 810 1141 C 846 1104 995 960 1142 821 C 1290 682 1410 565 1410 561 C 1410 557 1325 472 1220 371 C 1116 271 1030 184 1030 179 C 1030 166 1182 9 1191 12 C 1195 14 1252 67 1317 130 C 1382 193 1470 278 1512 319 L 1589 392 L 1785 209 C 1894 108 1985 24 1989 22 C 1992 21 2033 57 2078 103 L 2161 186 L 2160.403 186.576 C 2193.968 217.951 2246.376 268.651 2331.622 347.347 C 2533.493 533.704 2919.518 877.06 3199.867 1236.12 C 3247.061 1213.981 3299.748 1201.61 3355.325 1201.61 C 3557.729 1201.61 3721.81 1365.691 3721.81 1568.095 C 3721.81 1693.633 3658.689 1804.429 3562.454 1870.476 C 3605.095 1984.894 3636.301 2098.977 3657.812 2212.512 C 3838.111 2235.499 3977.487 2389.491 3977.487 2576.036 C 3977.487 2757.313 3845.872 2907.849 3672.988 2937.301 C 3656.803 3039.284 3631.615 3141.1 3595.589 3243.127 C 3679.947 3310.27 3734.023 3413.836 3734.023 3530.032 C 3734.023 3732.436 3569.942 3896.517 3367.538 3896.517 C 3318.291 3896.517 3271.312 3886.803 3228.414 3869.187 C 2944.721 4213.363 2551.58 4546.528 2339.885 4730.986 C 2252.702 4806.952 2196.294 4857.696 2158.458 4890.513 L 2160 4892 L 2084 4973 C 2042 5018 2003 5057 1998 5058 C 1993 5060 1900 4975 1790 4870 L 1590 4678 L 1433 4828 C 1346 4911 1257 4997 1235 5019 C 1214 5042 1193 5060 1189 5060 C 1185 5060 1146 5021 1101 4974 Z M 1965 375 L 1768 564 L 1892 684 C 1960 751 2110 898 2227 1012 L 2439 1219 L 2470 1208 C 2517 1192 2647 1203 2703 1228 C 2801.909 1271.52 2878.318 1357.108 2908.034 1455.733 L 3006.386 1455.733 C 3017.048 1422.596 3032.299 1391.518 3051.391 1363.247 C 2786.408 1021.007 2405.76 686.665 2201.747 507.159 C 2097.731 415.637 2039.631 364.365 2009.315 332.267 Z M 2841 1791 L 2803 1834 L 2828 1909 C 2854.012 1991.681 2889.518 2136.503 2902.446 2212.773 C 3015.61 2241.418 3107.8 2322.707 3151.432 2429.053 C 3195.971 2429.842 3237.242 2430.571 3274.238 2431.225 C 3309.823 2348.582 3374.939 2281.647 3456.297 2243.708 C 3437.832 2142.123 3410.719 2038.8 3372.684 1934.176 C 3366.932 1934.444 3361.144 1934.58 3355.325 1934.58 C 3194.531 1934.58 3057.923 1831.028 3008.551 1686.974 L 2900.272 1686.974 C 2886.519 1726.613 2866.525 1762.639 2841 1791 Z M 3170.771 2644.342 C 3140.905 2785.43 3029.867 2896.552 2888.825 2926.541 C 2871.935 3003.385 2846.182 3100.139 2827 3157 C 2803 3228 2802 3229 2822 3247 C 2841.208 3264.074 2875.599 3322.648 2897.45 3370.516 L 3037.497 3370.516 C 3096.81 3248.022 3222.309 3163.547 3367.538 3163.547 C 3377.488 3163.547 3387.346 3163.944 3397.096 3164.722 C 3428.342 3081.036 3450.561 2997.167 3465.356 2912.439 C 3355.524 2864.822 3273.587 2764.992 3250.856 2644.261 Z M 2844 3734 C 2767 3832 2627 3884 2504 3860 L 2445 3850 L 2380 3919 C 2344 3957 2194 4104 2045 4246 C 1897 4388 1774 4506 1772 4510 C 1771 4513 1858 4600 1965 4704 L 1981.339 4719.752 C 1982.153 4718.787 1982.982 4717.809 1983.826 4716.817 C 2020.183 4674.079 2084.042 4606.006 2318.971 4402.653 C 2510.709 4236.685 2816.401 3980.606 3050.778 3714.472 C 3032.211 3682.654 3018.301 3647.785 3009.982 3610.801 L 2905.471 3610.801 C 2891.924 3656.808 2870.984 3699.848 2844 3734 Z M 2651 2194 C 2641 2140 2619 2057 2604 2010 L 2575 1925 L 2518 1919 C 2452 1912 2362 1871 2311 1824 C 2291 1807 2262 1767 2245 1736 L 2215 1680 L 2010 1680 C 1897 1680 1616 1677 1385 1673 L 965 1667 L 943 1713 C 892 1818 779 1897 663 1907 L 603 1913 L 571 2014 C 554 2069 537 2131 534 2150 C 529 2183 531 2187 582 2221 C 634 2256 674 2303 705 2368 L 721 2400 L 1223 2401 C 1499 2402 1775 2403 1835 2405 C 1860.523 2405.837 2150.058 2411.154 2478.21 2417.055 C 2514.634 2336.62 2579.256 2271.68 2659.465 2234.848 C 2656.751 2222.207 2653.875 2208.377 2651 2194 Z M 1521 2646 L 721 2638 L 697 2687 C 674 2731 608 2800 549 2841 L 525 2857 L 548 2945 C 561 2993 579 3053 588 3079 L 606 3125 L 662 3131 C 774 3143 886 3221 940 3323 L 965 3370 L 1140 3370 C 1236 3370 1518 3373 1766 3377 L 2216 3383 L 2229 3351 C 2276 3240 2423 3140 2542 3140 C 2576 3140 2576 3139 2603 3058 C 2615.743 3018.92 2634.261 2950.971 2646.902 2895.234 C 2549.61 2845.97 2477.263 2754.584 2453.849 2645.062 Z M 1758 4183 C 1850 4096 1999 3953 2089 3864 L 2254 3702 L 2235 3661 L 2217 3620 L 1701 3619 C 1417 3618 1136 3617 1075 3616 L 965 3615 L 946 3651 L 926 3688 L 959 3725 C 991 3762 1582 4338 1588 4339 C 1590 4340 1667 4269 1758 4183 Z M 2230 1404 L 2243 1367 L 2114 1241 C 2043 1172 1896 1028 1787 922 L 1590 729 L 1265 1041 C 1086 1213 940 1359 940 1366 C 940 1373 945 1390 952 1404 L 963 1430 L 1424 1432 C 1678 1434 1960 1436 2052 1438 L 2218 1440 Z"/>
    </g>
  </symbol>

  <symbol id="u-sv" viewBox="-90 0 512 512">
    <g transform="translate(0.000000,512.000000) scale(0.100000,-0.100000)">
      <path d="M 1101 4974 L 1021 4888 L 1178 4736 C 1264 4652 1353 4567 1375 4547 L 1415 4510 L 1320 4418 C 1268 4367 1115 4217 980 4085 L 735 3845 L 639 3849 C 547 3852 539 3850 475 3820 C 396 3782 331 3722 297 3653 C 265 3589 258 3557 259 3478 C 260 3393 288 3316 339 3258 L 378 3215 L 348 3125 C 332 3075 311 2999 302 2955 L 285 2875 L 227 2848 C 78 2776 -10 2611 19 2457 C 42 2332 103 2250 212 2195 L 284 2159 L 306 2062 C 318 2009 339 1933 352 1894 L 376 1822 L 338 1776 C 214 1621 236 1393 387 1266 C 466 1200 601 1168 695 1193 L 745 1206 L 810 1141 C 846 1104 995 960 1142 821 C 1290 682 1410 565 1410 561 C 1410 557 1325 472 1220 371 C 1116 271 1030 184 1030 179 C 1030 166 1182 9 1191 12 C 1195 14 1252 67 1317 130 C 1382 193 1470 278 1512 319 L 1589 392 L 1785 209 C 1894 108 1985 24 1989 22 C 1992 21 2033 57 2078 103 L 2161 186 L 1965 375 L 1768 564 L 1892 684 C 1960 751 2110 898 2227 1012 L 2439 1219 L 2215 1680 L 2010 1680 C 1897 1680 1616 1677 1385 1673 L 965 1667 L 943 1713 C 892 1818 779 1897 663 1907 L 603 1913 L 571 2014 C 554 2069 537 2131 534 2150 C 529 2183 531 2187 582 2221 C 634 2256 674 2303 705 2368 L 721 2400 L 1223 2401 C 1499 2402 1775 2403 1835 2405 C 1896 2407 2029 2409 2133 2409 L 2320 2410 L 2320 2531 L 2320 2653 L 1521 2646 L 721 2638 L 697 2687 C 674 2731 608 2800 549 2841 L 525 2857 L 548 2945 C 561 2993 579 3053 588 3079 L 606 3125 L 662 3131 C 774 3143 886 3221 940 3323 L 965 3370 L 1140 3370 C 1236 3370 1518 3373 1766 3377 L 2216 3383 L 2229 3351 C 2276 3240 2423 3140 2542 3140 C 2576 3140 2802 3229 2822 3247 C 2849 3271 2906 3377 2916 3420 C 2938 3522 2908 3653 2844 3734 C 2767 3832 2627 3884 2504 3860 L 2445 3850 L 2380 3919 C 2344 3957 2194 4104 2045 4246 C 1897 4388 1774 4506 1772 4510 C 1771 4513 1858 4600 1965 4704 L 2160 4892 L 2084 4973 C 2042 5018 2003 5057 1998 5058 C 1993 5060 1900 4975 1790 4870 L 1590 4678 L 1433 4828 C 1346 4911 1257 4997 1235 5019 C 1214 5042 1193 5060 1189 5060 C 1185 5060 1146 5021 1101 4974 Z M 1758 4183 C 1850 4096 1999 3953 2089 3864 L 2254 3702 L 2235 3661 L 2217 3620 L 1701 3619 C 1417 3618 1136 3617 1075 3616 L 965 3615 L 946 3651 L 926 3688 L 959 3725 C 991 3762 1582 4338 1588 4339 C 1590 4340 1667 4269 1758 4183 Z M 2230 1404 L 2243 1367 L 2114 1241 C 2043 1172 1896 1028 1787 922 L 1590 729 L 1265 1041 C 1086 1213 940 1359 940 1366 C 940 1373 945 1390 952 1404 L 963 1430 L 1424 1432 C 1678 1434 1960 1436 2052 1438 L 2218 1440 L 2230 1404 Z"/>
    </g>
  </symbol>

  <symbol id="u-lolliplot" viewBox="0 0 100 100">
    <path d="M19.9 60c0 3.3-2 6.1-5.3 7.1V95H9.9V67.1C7.2 66.1 5 63.3 5 60c0-4.1 3.5-7.5 7.6-7.5s7.3 3.4 7.3 7.5zM32 18.2c-4.1 0-7.6 3.4-7.6 7.5 0 3.3 2.3 6 4.9 7.1V95H34V32.8c3.4-1 5.3-3.8 5.3-7.1.1-4.2-3.2-7.5-7.3-7.5zm18.4 21.4c-4.1 0-7.5 3.4-7.5 7.5 0 3.3 1.8 6.2 5.2 7.1V95h4.7V54.2c2.7-1 5-3.8 5-7.1.1-4.1-3.2-7.5-7.4-7.5zM68.9 5c-4.1 0-7.4 3.4-7.4 7.5 0 3.1 2.1 5.8 4.8 7V95H71V19.8c3.4-.9 5.4-3.8 5.4-7.2C76.5 8.4 73 5 68.9 5zM95 76.5c0-4.1-3.4-7.5-7.6-7.5-4.1 0-7.3 3.4-7.3 7.5 0 3.2 1.7 5.9 5 7V95h4.7V83.6c2.7-.9 5.2-3.8 5.2-7.1z"></path>
  </symbol>
</svg>