<svg xmlns="http://www.w3.org/2000/svg">
    <symbol id="u-mouse" viewBox="2 2 28 28">
        <path d="M 3.984375 6.9863281 A 1.0001 1.0001 0 0 0 3 8 C 3 12.236284 5.1057773 12.961703 5.5019531 13.619141 C 6.0563451 14.540603 5.9702039 15.022218 5.7421875 15.794922 C 5.5141711 16.567626 5 17.549244 5 18.861328 C 5 19.556357 5.1894903 20.568418 5.9648438 21.460938 C 6.740197 22.353456 8.0840564 23 10 23 L 20 23 C 24 23 27 22.037 27 21 C 27 20.104269 25.366006 17.950625 23.753906 16.583984 A 3 4 0 0 0 24 15 A 3 4 0 0 0 21 11 A 3 4 0 0 0 18 15 C 18 15.552 17.552 16 17 16 C 16.448 16 16 15.552 16 15 C 16 14.434 16.070359 13.888141 16.193359 13.369141 C 11.830014 14.534213 9.6018143 18.29391 9.1074219 20.933594 C 8.2271008 20.800807 7.7607775 20.477849 7.4746094 20.148438 C 7.1034627 19.721205 7 19.165299 7 18.861328 C 7 18.116413 7.3609228 17.375374 7.6601562 16.361328 C 7.9593898 15.347282 8.0534049 13.978428 7.2167969 12.587891 A 1.0001 1.0001 0 0 0 7.2148438 12.585938 C 6.1310164 10.787422 5 11.691716 5 8 A 1.0001 1.0001 0 0 0 3.984375 6.9863281 z M 23.5 19 C 23.776 19 24 19.224 24 19.5 C 24 19.776 23.776 20 23.5 20 C 23.224 20 23 19.776 23 19.5 C 23 19.224 23.224 19 23.5 19 z"></path>
    </symbol>

    <symbol id="u-tissue" viewBox="0 0 32 32">
        <path d="M 16 4 C 9.3844239 4 4 9.3844287 4 16 C 4 22.615571 9.3844239 28 16 28 C 22.615576 28 28 22.615571 28 16 C 28 9.3844287 22.615576 4 16 4 z M 16 6 C 21.534697 6 26 10.465307 26 16 C 26 21.534693 21.534697 26 16 26 C 10.465303 26 6 21.534693 6 16 C 6 10.465307 10.465303 6 16 6 z M 14 9 C 13.083334 9 12.268559 9.3797556 11.751953 9.9609375 C 11.235347 10.542119 11 11.277778 11 12 C 11 12.722222 11.235347 13.457881 11.751953 14.039062 C 12.268559 14.620245 13.083334 15 14 15 C 14.916666 15 15.731441 14.620244 16.248047 14.039062 C 16.764653 13.457882 17 12.722222 17 12 C 17 11.971301 16.992934 11.942793 16.992188 11.914062 A 1.5 1.5 0 0 0 16.5 9 A 1.5 1.5 0 0 0 15.496094 9.3886719 C 15.059996 9.1508473 14.553714 9 14 9 z M 14 11 C 14.416666 11 14.601893 11.120244 14.751953 11.289062 C 14.902014 11.457882 15 11.722222 15 12 C 15 12.277778 14.90201 12.542119 14.751953 12.710938 C 14.601893 12.879755 14.416666 13 14 13 C 13.583334 13 13.398107 12.879756 13.248047 12.710938 C 13.097986 12.542118 13 12.277778 13 12 C 13 11.722222 13.097986 11.457881 13.248047 11.289062 C 13.398107 11.120245 13.583334 11 14 11 z M 21 11 A 1 1 0 0 0 21 13 A 1 1 0 0 0 21 11 z M 9 15 A 1 1 0 0 0 9 17 A 1 1 0 0 0 9 15 z M 19.5 15 C 17.610547 15 16.068544 16.53216 16.017578 18.410156 C 14.901712 18.849058 14 19.736752 14 21 C 14 22.64497 15.35503 24 17 24 C 18.263248 24 19.150942 23.098288 19.589844 21.982422 C 21.46784 21.931456 23 20.389453 23 18.5 C 23 16.578812 21.421188 15 19.5 15 z M 19.5 17 C 20.340812 17 21 17.659188 21 18.5 C 21 19.340812 20.340812 20 19.5 20 C 19.396364 20 19.293919 19.98911 19.193359 19.96875 L 18.226562 19.773438 L 18.03125 18.806641 C 18.010891 18.706081 18 18.603636 18 18.5 C 18 17.659188 18.659188 17 19.5 17 z M 10.5 18 A 1.5 1.5 0 0 0 10.5 21 A 1.5 1.5 0 0 0 10.5 18 z M 17 20 C 16.832815 20 16.837704 20.005859 17.050781 20.005859 L 17.994141 20.005859 L 17.994141 20.949219 C 17.994142 21.162256 18 21.167185 18 21 C 18 21.56503 17.56503 22 17 22 C 16.43497 22 16 21.56503 16 21 C 16 20.43497 16.43497 20 17 20 z"></path>
    </symbol>

    <symbol id="u-organoid" viewBox="-30 -30 470 470">
        <path d="M178.667 10.849 C 29.182 26.160,-42.719 206.100,54.150 322.464 C 136.791 421.737,297.246 409.372,362.952 298.667 C 443.776 162.492,336.340 -5.302,178.667 10.849 M226.667 33.525 C 325.080 47.265,391.503 153.856,361.075 249.214 C 322.083 371.410,171.428 408.827,81.300 318.700 C -21.607 215.793,42.980 45.146,190.000 31.503 C 197.074 30.846,214.272 31.795,226.667 33.525 M199.242 62.762 C 194.755 64.066,188.610 70.222,186.650 75.378 C 185.646 78.019,184.470 78.667,180.682 78.667 C 178.087 78.667,174.922 79.208,173.649 79.870 C 170.085 81.722,154.848 83.607,152.988 82.425 C 141.117 74.886,117.333 87.669,117.333 101.589 C 117.333 106.894,103.039 118.272,94.442 119.810 C 78.561 122.651,69.103 141.111,76.594 154.645 C 78.664 158.384,77.229 162.667,73.906 162.667 C 66.905 162.667,56.463 174.276,55.916 182.667 C 55.052 195.928,58.179 203.339,66.820 208.516 C 71.240 211.164,72.826 220.032,69.924 225.872 C 63.783 238.230,70.109 255.212,83.000 260.971 C 85.017 261.872,86.667 263.449,86.667 264.475 C 86.667 265.501,87.611 267.124,88.766 268.082 C 90.501 269.523,90.715 271.688,89.998 280.579 C 88.285 301.817,105.232 316.316,123.061 308.866 C 128.702 306.509,137.333 311.238,137.333 316.686 C 137.333 318.509,137.933 320.000,138.667 320.000 C 139.400 320.000,140.010 321.050,140.023 322.333 C 140.067 326.792,153.815 336.000,160.429 336.000 C 164.343 336.000,173.333 333.066,173.333 331.789 C 173.333 331.172,174.160 330.667,175.170 330.667 C 176.180 330.667,177.754 329.767,178.667 328.667 C 180.411 326.564,190.667 325.813,190.667 327.788 C 190.667 330.647,201.747 339.957,206.128 340.779 C 220.511 343.477,231.850 337.888,236.647 325.735 C 240.074 317.052,243.023 315.704,250.000 319.632 C 261.931 326.349,285.333 318.583,285.333 307.908 C 285.333 306.561,286.029 303.931,286.880 302.064 C 288.077 299.436,288.032 297.471,286.681 293.377 C 284.289 286.130,286.170 284.000,294.962 284.000 C 314.501 284.000,325.730 265.104,316.742 247.350 C 311.969 237.922,313.138 234.111,322.055 230.032 C 339.513 222.047,343.595 207.652,333.000 191.435 C 329.223 185.655,326.444 182.740,324.667 182.696 C 317.811 182.527,311.058 176.000,317.738 176.000 C 318.695 176.000,321.245 174.050,323.405 171.667 C 340.121 153.227,327.780 127.584,303.172 129.625 C 296.199 130.203,295.866 130.074,292.392 125.444 C 290.421 122.816,288.256 120.288,287.581 119.825 C 286.854 119.326,287.024 116.958,287.997 114.009 C 289.898 108.249,289.130 94.377,286.868 93.623 C 286.024 93.341,285.333 92.265,285.333 91.231 C 285.333 82.082,259.260 77.892,249.229 85.428 C 245.189 88.464,244.285 88.663,241.333 87.168 C 239.500 86.239,236.950 85.166,235.667 84.782 C 234.373 84.395,233.333 82.791,233.333 81.182 C 233.333 68.206,214.860 58.225,199.242 62.762 M214.554 74.333 C 226.535 81.147,223.801 96.782,210.363 98.296 C 197.060 99.796,191.055 86.367,200.711 76.711 C 206.009 71.413,208.627 70.963,214.554 74.333 M149.407 94.759 C 158.403 99.344,156.456 114.243,146.470 117.235 C 135.361 120.563,126.958 111.903,130.598 100.876 C 133.052 93.439,141.455 90.706,149.407 94.759 M270.069 94.122 C 277.196 97.504,279.425 108.765,274.035 114.156 C 263.911 124.280,246.068 112.747,252.726 100.383 C 256.683 93.035,262.984 90.760,270.069 94.122 M194.667 112.000 C 194.667 112.733,195.474 113.333,196.460 113.333 C 207.073 113.333,205.000 134.025,194.114 136.757 C 180.554 140.161,171.911 124.489,182.168 115.095 C 186.843 110.812,194.667 108.875,194.667 112.000 M105.472 132.241 C 107.307 133.108,109.938 136.138,111.319 138.976 C 118.196 153.115,95.618 163.650,88.218 149.754 C 82.261 138.570,93.884 126.773,105.472 132.241 M161.881 145.436 C 173.079 158.743,154.586 174.899,142.881 162.036 C 138.769 157.516,136.913 149.333,140.000 149.333 C 140.733 149.333,141.333 148.507,141.333 147.496 C 141.333 140.725,156.627 139.191,161.881 145.436 M271.903 146.304 C 276.770 152.209,276.986 154.842,273.064 160.461 C 264.744 172.380,248.090 166.624,249.695 152.384 C 251.024 140.590,264.216 136.978,271.903 146.304 M315.168 145.161 C 326.725 157.224,309.273 174.773,297.212 163.217 C 294.193 160.324,293.333 158.317,293.333 154.157 C 293.333 142.355,307.061 136.699,315.168 145.161 M220.797 162.747 C 231.141 169.140,227.006 184.647,214.511 186.323 C 209.835 186.950,208.849 186.526,204.658 182.082 C 193.670 170.431,207.134 154.303,220.797 162.747 M87.601 176.671 C 99.620 185.089,88.156 206.041,75.244 199.257 C 62.488 192.554,65.947 174.667,80.000 174.667 C 82.607 174.667,86.028 175.569,87.601 176.671 M136.913 185.990 C 152.866 193.948,146.200 215.877,129.361 210.833 C 119.101 207.759,118.230 189.087,128.252 187.083 C 130.313 186.671,132.000 185.808,132.000 185.167 C 132.000 183.623,132.254 183.666,136.913 185.990 M264.000 189.041 C 264.000 189.614,265.650 190.722,267.667 191.504 C 279.874 196.238,275.292 215.983,262.000 215.922 C 247.902 215.858,245.169 197.646,258.073 189.745 C 261.095 187.894,264.000 187.549,264.000 189.041 M323.380 197.594 C 329.390 203.293,327.865 211.351,319.454 218.333 C 317.030 220.345,311.167 220.517,308.944 218.642 C 308.058 217.895,305.907 216.108,304.163 214.671 C 297.935 209.539,300.501 198.064,308.667 194.532 C 312.798 192.744,319.804 194.203,323.380 197.594 M199.941 209.501 C 206.310 217.147,199.693 232.000,189.918 232.000 C 180.236 232.000,173.025 216.309,179.658 209.676 C 185.126 204.208,195.458 204.119,199.941 209.501 M96.320 224.832 C 103.553 228.573,109.694 242.667,104.090 242.667 C 103.406 242.667,102.466 243.867,102.000 245.333 C 101.534 246.800,100.294 248.000,99.243 248.000 C 98.193 248.000,97.333 248.600,97.333 249.333 C 97.333 252.380,88.023 250.650,83.718 246.803 C 76.675 240.510,79.395 225.333,87.566 225.333 C 88.538 225.333,89.333 224.733,89.333 224.000 C 89.333 222.089,91.519 222.350,96.320 224.832 M148.667 235.711 C 156.931 242.803,157.725 248.648,151.342 255.415 C 141.901 265.426,127.235 257.312,129.895 243.551 C 131.462 235.449,142.830 230.701,148.667 235.711 M251.988 241.531 C 260.195 250.118,255.226 262.948,243.596 263.203 C 236.630 263.355,232.553 260.443,230.864 254.108 C 227.363 240.976,242.720 231.832,251.988 241.531 M298.667 246.350 C 298.667 246.910,300.014 247.960,301.661 248.684 C 308.794 251.820,309.656 264.121,303.104 269.276 C 292.390 277.703,277.000 265.934,283.340 254.161 C 286.622 248.067,298.667 241.929,298.667 246.350 M198.769 257.231 C 210.553 269.014,192.920 286.573,180.688 275.236 C 172.381 267.538,178.216 253.333,189.685 253.333 C 193.640 253.333,195.797 254.259,198.769 257.231 M122.370 275.925 C 131.297 284.079,126.089 298.000,114.110 298.000 C 100.850 298.000,96.528 283.347,107.165 274.458 C 111.519 270.819,117.401 271.387,122.370 275.925 M267.665 286.227 C 276.548 291.326,277.978 299.046,271.342 306.082 C 263.807 314.072,251.839 310.939,249.874 300.461 C 247.738 289.076,258.134 280.758,267.665 286.227 M167.206 298.851 C 178.223 303.871,173.946 324.000,161.862 324.000 C 155.375 324.000,142.687 309.993,147.670 308.332 C 148.585 308.027,149.333 306.981,149.333 306.007 C 149.333 300.325,160.568 295.827,167.206 298.851 M218.651 305.069 C 231.518 311.362,227.399 329.333,213.090 329.333 C 199.342 329.333,195.885 311.199,208.440 304.943 C 213.657 302.344,213.063 302.336,218.651 305.069 "/>
    </symbol>
</svg>